<svg preserveAspectRatio="none" width="100%" height="100%" overflow="visible" style="display: block;" viewBox="0 0 24 24" fill="none" xmlns="http://www.w3.org/2000/svg">
<g id="uil:arrow-growth">
<rect width="24" height="24" rx="12" fill="var(--fill-0, #F2B525)"/>
<path id="Vector" d="M18.944 8.41313C18.873 8.25031 18.7371 8.12092 18.5661 8.05331C18.482 8.01916 18.3917 8.00105 18.3002 8H14.8012C14.6156 8 14.4376 8.0702 14.3064 8.19517C14.1751 8.32013 14.1014 8.48962 14.1014 8.66634C14.1014 8.84307 14.1751 9.01256 14.3064 9.13752C14.4376 9.26249 14.6156 9.33269 14.8012 9.33269H16.6137L12.7018 13.0576L10.3995 10.8586C10.3344 10.7962 10.257 10.7466 10.1718 10.7128C10.0865 10.6789 9.99502 10.6615 9.90264 10.6615C9.81026 10.6615 9.71879 10.6789 9.63351 10.7128C9.54823 10.7466 9.47084 10.7962 9.40578 10.8586L5.207 14.8567C5.14141 14.9186 5.08935 14.9923 5.05382 15.0735C5.01829 15.1547 5 15.2418 5 15.3298C5 15.4178 5.01829 15.5049 5.05382 15.5861C5.08935 15.6673 5.14141 15.741 5.207 15.8029C5.27205 15.8654 5.34945 15.9149 5.43473 15.9488C5.52001 15.9826 5.61147 16 5.70385 16C5.79624 16 5.8877 15.9826 5.97298 15.9488C6.05826 15.9149 6.13566 15.8654 6.20071 15.8029L9.90264 12.2713L12.205 14.4702C12.27 14.5327 12.3474 14.5822 12.4327 14.6161C12.518 14.6499 12.6094 14.6673 12.7018 14.6673C12.7942 14.6673 12.8857 14.6499 12.971 14.6161C13.0562 14.5822 13.1336 14.5327 13.1987 14.4702L17.6004 10.2722V11.9981C17.6004 12.1748 17.6741 12.3443 17.8054 12.4692C17.9366 12.5942 18.1146 12.6644 18.3002 12.6644C18.4858 12.6644 18.6638 12.5942 18.795 12.4692C18.9263 12.3443 19 12.1748 19 11.9981V8.66634C18.9989 8.57927 18.9799 8.49324 18.944 8.41313Z" fill="var(--fill-0, #285039)"/>
</g>
</svg>
