<svg width="48" height="48" viewBox="0 0 48 48" fill="none" xmlns="http://www.w3.org/2000/svg">
<path d="M24.1 46L14.7 28C12.3333 28.1 10.292 27.4167 8.576 25.95C6.86 24.4833 6.00133 22.5 6 20C6 18.3 6.492 16.7667 7.476 15.4C8.46 14.0333 9.70133 13.0667 11.2 12.5C11.8 9.46667 13.292 6.958 15.676 4.974C18.06 2.99 20.8347 1.99867 24 2C27.1653 2.00133 29.9407 2.99333 32.326 4.976C34.7113 6.95867 36.2027 9.46667 36.8 12.5C38.3 13.0667 39.542 14.0333 40.526 15.4C41.51 16.7667 42.0013 18.3 42 20C42 22.5 41.1167 24.4833 39.35 25.95C37.5833 27.4167 35.6 28.1 33.4 28L24.1 46ZM14 24C14.5 24 14.992 23.9167 15.476 23.75C15.96 23.5833 16.4013 23.3 16.8 22.9L17.9 21.8L19.2 22.6C19.9 23.0667 20.6587 23.4167 21.476 23.65C22.2933 23.8833 23.1347 24 24 24C24.8653 24 25.7073 23.8833 26.526 23.65C27.3447 23.4167 28.1027 23.0667 28.8 22.6L30.1 21.8L31.2 22.9C31.6 23.3 32.042 23.5833 32.526 23.75C33.01 23.9167 33.5013 24 34 24C35.1 24 36.042 23.6087 36.826 22.826C37.61 22.0433 38.0013 21.1013 38 20C38 19 37.6833 18.1253 37.05 17.376C36.4167 16.6267 35.6 16.168 34.6 16L33.1 15.8L33 14.2C32.8333 11.9 31.8833 9.95867 30.15 8.376C28.4167 6.79333 26.3667 6.00133 24 6C21.6333 5.99867 19.5833 6.79067 17.85 8.376C16.1167 9.96134 15.1667 11.9027 15 14.2L14.9 15.8L13.4 16.1C12.4 16.3 11.5833 16.75 10.95 17.45C10.3167 18.15 10 19 10 20C10 21.1 10.392 22.042 11.176 22.826C11.96 23.61 12.9013 24.0013 14 24ZM24.1 37.3L29.5 26.8C28.7 27.2 27.8333 27.5 26.9 27.7C25.9667 27.9 25 28 24 28C23.1 28 22.192 27.9 21.276 27.7C20.36 27.5 19.468 27.2 18.6 26.8L24.1 37.3Z" fill="#73A027"/>
</svg>
