<svg width="20" height="20" viewBox="0 0 20 20" fill="none" xmlns="http://www.w3.org/2000/svg">
<path d="M19.9851 4.30853C19.9851 4.28568 20.0008 4.26344 19.9998 4.24084L13.8965 10.1217L19.9925 15.8147C19.9961 15.7741 19.9851 15.733 19.9851 15.6915V4.30853Z" fill="#73A027"/>
<path d="M12.9653 11.0267L10.4737 13.4239C10.3477 13.5452 10.1848 13.606 10.0219 13.606C9.86236 13.606 9.70283 13.5478 9.57762 13.4311L7.09284 11.1157L0.957031 17.0299C1.10623 17.0836 1.26637 17.1252 1.43407 17.1252H18.6098C18.8588 17.1252 19.0924 17.0493 19.2955 16.9362L12.9653 11.0267Z" fill="#73A027"/>
<path d="M10.014 12.0569L19.3285 3.08431C19.1176 2.95893 18.8722 2.87482 18.609 2.87482H1.4333C1.09068 2.87482 0.776741 3.00785 0.532227 3.21074L10.014 12.0569Z" fill="#73A027"/>
<path d="M0 4.5271V15.6914C0 15.8195 0.0294565 15.9431 0.0614329 16.0612L6.12113 10.2258L0 4.5271Z" fill="#73A027"/>
</svg>
