<svg preserveAspectRatio="none" width="100%" height="100%" overflow="visible" style="display: block;" viewBox="0 0 48 48" fill="none" xmlns="http://www.w3.org/2000/svg">
<g id="material-symbols:rocket-launch-outline">
<path id="Vector" d="M11.3 20.05L15.2 21.7C15.6667 20.7667 16.15 19.8667 16.65 19C17.15 18.1333 17.7 17.2667 18.3 16.4L15.5 15.85L11.3 20.05ZM18.4 24.2L24.1 29.85C25.5 29.3167 27 28.5 28.6 27.4C30.2 26.3 31.7 25.05 33.1 23.65C35.4333 21.3167 37.2587 18.7253 38.576 15.876C39.8933 13.0267 40.468 10.4013 40.3 8C37.9 7.83333 35.2667 8.40867 32.4 9.726C29.5333 11.0433 26.9333 12.868 24.6 15.2C23.2 16.6 21.95 18.1 20.85 19.7C19.75 21.3 18.9333 22.8 18.4 24.2ZM26.15 18.126C26.15 17.0087 26.5333 16.0667 27.3 15.3C28.0667 14.5333 29.0167 14.15 30.15 14.15C31.2833 14.15 32.2333 14.5333 33 15.3C33.7667 16.0667 34.15 17.0087 34.15 18.126C34.15 19.2433 33.7667 20.1847 33 20.95C32.2333 21.7153 31.2833 22.0987 30.15 22.1C29.0167 22.1013 28.0667 21.718 27.3 20.95C26.5333 20.182 26.15 19.2407 26.15 18.126ZM28.25 37L32.45 32.8L31.9 30C31.0333 30.6 30.1667 31.1413 29.3 31.624C28.4333 32.1067 27.5333 32.582 26.6 33.05L28.25 37ZM43.9 4.35C44.5333 8.38333 44.142 12.3087 42.726 16.126C41.31 19.9433 38.868 23.5847 35.4 27.05L36.4 32C36.5333 32.6667 36.5 33.3167 36.3 33.95C36.1 34.5833 35.7667 35.1333 35.3 35.6L26.9 44L22.7 34.15L14.15 25.6L4.3 21.4L12.65 13C13.1167 12.5333 13.6753 12.2 14.326 12C14.9767 11.8 15.6347 11.7667 16.3 11.9L21.25 12.9C24.7167 9.43333 28.35 6.98333 32.15 5.55C35.95 4.11667 39.8667 3.71667 43.9 4.35ZM7.85 31.95C9.01667 30.7833 10.442 30.192 12.126 30.176C13.81 30.16 15.2347 30.7347 16.4 31.9C17.5653 33.0653 18.1407 34.4907 18.126 36.176C18.1113 37.8613 17.5193 39.286 16.35 40.45C15.5167 41.2833 14.1253 42 12.176 42.6C10.2267 43.2 7.53467 43.7333 4.1 44.2C4.56667 40.7667 5.1 38.0747 5.7 36.124C6.3 34.1733 7.01667 32.782 7.85 31.95ZM10.7 34.75C10.3667 35.0833 10.0333 35.692 9.7 36.576C9.36667 37.46 9.13333 38.3513 9 39.25C9.9 39.1167 10.792 38.892 11.676 38.576C12.56 38.26 13.168 37.9347 13.5 37.6C13.9 37.2 14.1167 36.7167 14.15 36.15C14.1833 35.5833 14 35.1 13.6 34.7C13.2 34.3 12.7167 34.108 12.15 34.124C11.5833 34.14 11.1 34.3487 10.7 34.75Z" fill="var(--fill-0, #73A027)"/>
</g>
</svg>
