<svg preserveAspectRatio="none" width="100%" height="100%" overflow="visible" style="display: block;" viewBox="0 0 80 80" fill="none" xmlns="http://www.w3.org/2000/svg">
<g id="material-symbols:cycle-rounded">
<path id="Vector" d="M13.3333 40.0833C13.3333 44.8056 14.5144 49.1944 16.8767 53.25C19.2389 57.3056 22.4467 60.5555 26.5 63C27.2778 63.5 27.82 64.1811 28.1267 65.0433C28.4333 65.9056 28.3633 66.7244 27.9167 67.5C27.4722 68.3333 26.7922 68.8756 25.8767 69.1267C24.9611 69.3778 24.0856 69.28 23.25 68.8333C18.0833 65.8333 14.0278 61.7778 11.0833 56.6667C8.13889 51.5556 6.66667 46.0278 6.66667 40.0833C6.66667 38.6389 6.76445 37.2222 6.96 35.8333C7.15556 34.4444 7.41889 33.0556 7.75 31.6667L6.66667 32.3333C5.88889 32.8333 5.05556 32.9589 4.16667 32.71C3.27778 32.4611 2.61111 31.9467 2.16667 31.1667C1.72222 30.3867 1.62445 29.5389 1.87333 28.6233C2.12222 27.7078 2.63667 27.0278 3.41667 26.5833L13.5 20.75C14.2778 20.3056 15.1256 20.2089 16.0433 20.46C16.9611 20.7111 17.6411 21.2244 18.0833 22L23.9167 32C24.3611 32.7778 24.4589 33.6256 24.21 34.5433C23.9611 35.4611 23.4467 36.1411 22.6667 36.5833C21.8867 37.0256 21.04 37.1233 20.1267 36.8767C19.2133 36.63 18.5322 36.1156 18.0833 35.3333L15.25 30.4167C14.6389 31.9722 14.1667 33.5556 13.8333 35.1667C13.5 36.7778 13.3333 38.4167 13.3333 40.0833ZM40 13.3333C37.7222 13.3333 35.4722 13.6256 33.25 14.21C31.0278 14.7944 28.9167 15.6411 26.9167 16.75C26.0833 17.1944 25.2089 17.3478 24.2933 17.21C23.3778 17.0722 22.6967 16.6133 22.25 15.8333C21.75 14.9444 21.6389 14.0422 21.9167 13.1267C22.1944 12.2111 22.7778 11.5022 23.6667 11C26.1667 9.55556 28.7922 8.47222 31.5433 7.75C34.2944 7.02778 37.1133 6.66667 40 6.66667C44.3889 6.66667 48.5978 7.48667 52.6267 9.12667C56.6556 10.7667 60.2522 13.1411 63.4167 16.25V15C63.4167 14.0556 63.7367 13.2644 64.3767 12.6267C65.0167 11.9889 65.8078 11.6689 66.75 11.6667C67.6922 11.6644 68.4844 11.9844 69.1267 12.6267C69.7689 13.2689 70.0878 14.06 70.0833 15V26.6667C70.0833 27.6111 69.7644 28.4033 69.1267 29.0433C68.4889 29.6833 67.6967 30.0022 66.75 30H55.0833C54.1389 30 53.3478 29.68 52.71 29.04C52.0722 28.4 51.7522 27.6089 51.75 26.6667C51.7478 25.7244 52.0678 24.9333 52.71 24.2933C53.3522 23.6533 54.1433 23.3333 55.0833 23.3333H60.8333C58.2778 20.1667 55.1944 17.7089 51.5833 15.96C47.9722 14.2111 44.1111 13.3356 40 13.3333ZM60.1667 57.5833C62.2778 55.1389 63.8889 52.4444 65 49.5C66.1111 46.5556 66.6667 43.4722 66.6667 40.25C66.6667 39.3056 66.9867 38.4722 67.6267 37.75C68.2667 37.0278 69.0578 36.6667 70 36.6667C70.9422 36.6667 71.7344 37.0278 72.3767 37.75C73.0189 38.4722 73.3378 39.3056 73.3333 40.25C73.3333 43.8611 72.7633 47.3467 71.6233 50.7067C70.4833 54.0667 68.8311 57.1922 66.6667 60.0833C64.5022 62.9744 61.9333 65.4467 58.96 67.5C55.9867 69.5533 52.75 71.0811 49.25 72.0833L50.0833 72.5833C50.8611 73.0278 51.3611 73.7089 51.5833 74.6267C51.8056 75.5444 51.6944 76.3911 51.25 77.1667C50.8056 77.9422 50.1389 78.4422 49.25 78.6667C48.3611 78.8911 47.5278 78.78 46.75 78.3333L36.5833 72.5C35.8056 72.0556 35.2922 71.3744 35.0433 70.4567C34.7944 69.5389 34.8911 68.6922 35.3333 67.9167L41.1667 57.8333C41.6111 57.0556 42.2778 56.5556 43.1667 56.3333C44.0556 56.1111 44.8889 56.2222 45.6667 56.6667C46.4444 57.1111 46.9589 57.7922 47.21 58.71C47.4611 59.6278 47.3633 60.4744 46.9167 61.25L43.8333 66.5C47 66.0556 49.9867 65.0689 52.7933 63.54C55.6 62.0111 58.0578 60.0256 60.1667 57.5833Z" fill="var(--fill-0, white)"/>
</g>
</svg>
