<svg preserveAspectRatio="none" width="100%" height="100%" overflow="visible" style="display: block;" viewBox="0 0 80 80" fill="none" xmlns="http://www.w3.org/2000/svg">
<g id="mdi:calendar-star-outline">
<path id="Vector" d="M63.3333 10H60V3.33333H53.3333V10H26.6667V3.33333H20V10H16.6667C13 10 10 13 10 16.6667V63.3333C10 67 13 70 16.6667 70H63.3333C67 70 70 67 70 63.3333V16.6667C70 13 67 10 63.3333 10ZM63.3333 63.3333H16.6667V30H63.3333V63.3333ZM63.3333 23.3333H16.6667V16.6667H63.3333V23.3333ZM36.6667 43.3333H26L34.6667 50L31.3333 60L40 54L48.6667 60L45.3333 50L54 43.3333H43.3333L40 33.3333L36.6667 43.3333Z" fill="var(--fill-0, white)"/>
</g>
</svg>
