<svg preserveAspectRatio="none" width="100%" height="100%" overflow="visible" style="display: block;" viewBox="0 0 48 48" fill="none" xmlns="http://www.w3.org/2000/svg">
<g id="material-symbols:handshake-outline">
<path id="Vector" d="M23.75 40C23.8833 40 24.0167 39.9667 24.15 39.9C24.2833 39.8333 24.3833 39.7667 24.45 39.7L40.85 23.3C41.25 22.9 41.542 22.45 41.726 21.95C41.91 21.45 42.0013 20.95 42 20.45C42 19.9167 41.9087 19.408 41.726 18.924C41.5433 18.44 41.2513 18.0153 40.85 17.65L32.35 9.15C31.9833 8.75 31.558 8.45867 31.074 8.276C30.59 8.09333 30.0827 8.00133 29.552 8C29.052 8 28.552 8.092 28.052 8.276C27.552 8.46 27.102 8.75133 26.702 9.15L26.152 9.7L29.852 13.45C30.352 13.9167 30.7187 14.45 30.952 15.05C31.1853 15.65 31.302 16.2833 31.302 16.95C31.302 18.35 30.8273 19.5253 29.878 20.476C28.9287 21.4267 27.7533 21.9013 26.352 21.9C25.6853 21.9 25.044 21.7833 24.428 21.55C23.812 21.3167 23.27 20.9667 22.802 20.5L19.05 16.8L10.3 25.55C10.2 25.65 10.1253 25.7587 10.076 25.876C10.0267 25.9933 10.0013 26.118 10 26.25C10 26.5167 10.1 26.7587 10.3 26.976C10.5 27.1933 10.7333 27.3013 11 27.3C11.1333 27.3 11.2667 27.2667 11.4 27.2C11.5333 27.1333 11.6333 27.0667 11.7 27L18.5 20.2L21.3 23L14.55 29.8C14.45 29.9 14.3753 30.0087 14.326 30.126C14.2767 30.2433 14.2513 30.368 14.25 30.5C14.25 30.7667 14.35 31 14.55 31.2C14.75 31.4 14.9833 31.5 15.25 31.5C15.3833 31.5 15.5167 31.4667 15.65 31.4C15.7833 31.3333 15.8833 31.2667 15.95 31.2L22.75 24.45L25.55 27.25L18.8 34.05C18.7 34.1167 18.6253 34.2167 18.576 34.35C18.5267 34.4833 18.5013 34.6167 18.5 34.75C18.5 35.0167 18.6 35.25 18.8 35.45C19 35.65 19.2333 35.75 19.5 35.75C19.6333 35.75 19.7587 35.7247 19.876 35.674C19.9933 35.6233 20.1013 35.5487 20.2 35.45L27 28.7L29.8 31.5L23 38.3C22.9 38.4 22.8253 38.508 22.776 38.624C22.7267 38.74 22.7013 38.8653 22.7 39C22.7 39.2667 22.8087 39.5 23.026 39.7C23.2433 39.9 23.4847 40 23.75 40ZM23.7 44C22.4667 44 21.3753 43.592 20.426 42.776C19.4767 41.96 18.918 40.9347 18.75 39.7C17.6167 39.5333 16.6667 39.0667 15.9 38.3C15.1333 37.5333 14.6667 36.5833 14.5 35.45C13.3667 35.2833 12.4253 34.8087 11.676 34.026C10.9267 33.2433 10.468 32.3013 10.3 31.2C9.03333 31.0333 8 30.4833 7.2 29.55C6.4 28.6167 6 27.5167 6 26.25C6 25.5833 6.12533 24.942 6.376 24.326C6.62667 23.71 6.98467 23.168 7.45 22.7L19.05 11.15L25.6 17.7C25.6667 17.8 25.7667 17.8753 25.9 17.926C26.0333 17.9767 26.1667 18.0013 26.3 18C26.6 18 26.85 17.9087 27.05 17.726C27.25 17.5433 27.35 17.3013 27.35 17C27.35 16.8667 27.3247 16.7333 27.274 16.6C27.2233 16.4667 27.1487 16.3667 27.05 16.3L19.9 9.15C19.5333 8.75 19.1087 8.45867 18.626 8.276C18.1433 8.09333 17.6347 8.00133 17.1 8C16.6 8 16.1 8.092 15.6 8.276C15.1 8.46 14.65 8.75133 14.25 9.15L7.2 16.25C6.9 16.55 6.65 16.9 6.45 17.3C6.25 17.7 6.11667 18.1 6.05 18.5C5.98333 18.9 5.98333 19.3087 6.05 19.726C6.11667 20.1433 6.25 20.5347 6.45 20.9L3.55 23.8C2.98333 23.0333 2.56667 22.192 2.3 21.276C2.03333 20.36 1.93333 19.4347 2 18.5C2.06667 17.5653 2.3 16.6573 2.7 15.776C3.1 14.8947 3.65 14.1027 4.35 13.4L11.4 6.35C12.2 5.58333 13.092 5 14.076 4.6C15.06 4.2 16.068 4 17.1 4C18.132 4 19.1407 4.2 20.126 4.6C21.1113 5 21.986 5.58333 22.75 6.35L23.3 6.9L23.85 6.35C24.65 5.58333 25.542 5 26.526 4.6C27.51 4.2 28.518 4 29.55 4C30.582 4 31.5907 4.2 32.576 4.6C33.5613 5 34.436 5.58333 35.2 6.35L43.65 14.8C44.4167 15.5667 45 16.45 45.4 17.45C45.8 18.45 46 19.4667 46 20.5C46 21.5333 45.8 22.542 45.4 23.526C45 24.51 44.4167 25.3847 43.65 26.15L27.25 42.5C26.7833 42.9667 26.242 43.3333 25.626 43.6C25.01 43.8667 24.368 44 23.7 44Z" fill="var(--fill-0, #73A027)"/>
</g>
</svg>
