<svg preserveAspectRatio="none" width="100%" height="100%" overflow="visible" style="display: block;" viewBox="0 0 44 48" fill="none" xmlns="http://www.w3.org/2000/svg">
<g id="material-symbols:scale-outline">
<path id="Vector" d="M3.66667 44C3.66667 40.3 4.11767 37.142 5.01967 34.526C5.92167 31.91 7.07422 29.7347 8.47733 28C9.88044 26.2653 11.4547 24.9233 13.2 23.974C14.9453 23.0247 16.6564 22.3667 18.3333 22V16C14.1472 15.4333 10.6566 14.0247 7.86133 11.774C5.06611 9.52333 3.66789 6.932 3.66667 4H40.3333C40.3333 6.93333 38.9357 9.52533 36.1405 11.776C33.3453 14.0267 29.854 15.4347 25.6667 16V22C27.3472 22.3667 29.0583 23.0253 30.8 23.976C32.5417 24.9267 34.1153 26.268 35.5208 28C36.9264 29.732 38.0802 31.9073 38.9822 34.526C39.8842 37.1447 40.3346 40.3027 40.3333 44H29.3333V40H36.4375C35.8875 34.9333 34.1532 31.2667 31.2345 29C28.3158 26.7333 25.2377 25.6 22 25.6C18.7623 25.6 15.6836 26.7333 12.7637 29C9.84378 31.2667 8.11006 34.9333 7.5625 40H14.6667V44H3.66667ZM29.425 11.026C31.5944 10.2087 33.3208 9.2 34.6042 8H9.39583C10.6792 9.2 12.4056 10.2087 14.575 11.026C16.7444 11.8433 19.2194 12.2513 22 12.25C24.7806 12.2487 27.2556 11.8407 29.425 11.026ZM22 44C20.9917 44 20.1288 43.6087 19.4113 42.826C18.6939 42.0433 18.3346 41.1013 18.3333 40C18.3333 39.4333 18.4329 38.9167 18.6322 38.45C18.8314 37.9833 19.0984 37.5667 19.4333 37.2C20.1667 36.4 21.4042 35.558 23.1458 34.674C24.8875 33.79 26.95 32.8987 29.3333 32C28.4778 34.6 27.6528 36.85 26.8583 38.75C26.0639 40.65 25.3 42 24.5667 42.8C24.2306 43.1667 23.8486 43.4587 23.4208 43.676C22.9931 43.8933 22.5194 44.0013 22 44Z" fill="var(--fill-0, #73A027)"/>
</g>
</svg>
