<svg width="34" height="34" viewBox="0 0 34 34" fill="none" xmlns="http://www.w3.org/2000/svg">
<rect width="34" height="34" rx="17" fill="#F2B525"/>
<g clip-path="url(#clip0_19609_4378)">
<path d="M12.1084 14.4004H8.27441V26.2083H12.1084V14.4004Z" fill="#285039"/>
<path d="M10.1912 8.5C8.95495 8.5 8.14743 9.38613 8.17244 10.5664C8.14743 11.6944 8.95376 12.6067 10.165 12.6067C11.3763 12.6067 12.2339 11.6944 12.2339 10.5664C12.2089 9.38613 11.4275 8.5 10.1912 8.5Z" fill="#285039"/>
<path d="M21.6419 14.123C19.9721 14.123 18.8251 14.9151 18.1855 15.6309V14.4006H14.3516V26.2085H18.1855V19.6221C18.1855 19.2683 18.2355 18.8908 18.3368 18.6633C18.5893 17.957 19.2193 17.2257 20.2794 17.2257C21.6669 17.2257 22.2219 18.3107 22.2219 19.8996V26.2085H26.0559V19.4208C26.0559 15.7881 24.1645 14.1242 21.6419 14.1242V14.123Z" fill="#285039"/>
</g>
<defs>
<clipPath id="clip0_19609_4378">
<rect width="17.8834" height="17.7083" fill="white" transform="translate(8.17285 8.5)"/>
</clipPath>
</defs>
</svg>
