<svg width="140" height="88" viewBox="0 0 140 88" fill="none" xmlns="http://www.w3.org/2000/svg">
<path d="M93.1302 18.0481C85.1351 18.0661 77.1122 20.2567 70.053 23.6789C64.3289 20.8251 55.6179 18.1788 49.2698 17.9926L46.4258 17.9093C47.37 13.8793 49.4061 10.2562 52.2813 7.29458C57.4718 1.94476 64.7575 -0.597013 72.2025 0.118474C82.3273 1.09206 90.7591 8.14565 93.1302 18.0498V18.0481Z" fill="#F2B525"/>
<path d="M85.5806 40.9391C74.6299 47.6464 60.198 46.712 50.5872 37.9595C46.0256 33.8054 42.9402 27.8267 42.707 21.6095L44.244 21.5196C45.4246 21.451 46.6019 21.451 47.7826 21.5164L49.2883 21.6013C54.5609 21.897 59.6512 23.194 64.5543 25.1477C72.9714 28.5144 80.0584 33.6094 85.5806 40.9374V40.9391Z" fill="#73A027"/>
<path d="M88.7657 38.6997C86.943 36.3245 85.2107 34.263 83.0925 32.3501C80.3503 29.8721 77.4849 27.6946 74.2402 25.901C81.7296 22.8544 89.3092 21.296 97.3683 21.7338C97.255 26.9971 94.9036 32.1835 91.4225 36.0746L88.7657 38.7013V38.6997Z" fill="#466D2E"/>
<path d="M43.4142 87.2776C42.828 87.6859 42.1071 87.8183 41.4142 87.8183L37.4043 87.8215C37.291 87.8215 37.0841 87.699 37.0858 87.619C37.0907 87.3756 37.9446 87.5144 37.9462 86.9117V80.9133C37.9495 80.2338 37.0677 80.3906 37.0792 80.2664L37.1104 79.9446C37.874 79.894 38.6457 79.8858 39.452 79.912C40.6424 79.9479 43.1547 79.8385 43.6457 81.2515C43.8575 81.864 43.7836 82.555 43.2746 82.9438C42.9347 83.2035 42.5094 83.3898 42.0447 83.6544C42.6589 83.9043 43.2713 84.0464 43.6654 84.4369C44.4979 85.2651 44.3994 86.5899 43.4142 87.2759V87.2776ZM41.4864 83.215C42.1859 82.9046 42.3009 82.2038 42.1597 81.5455C41.9117 80.3922 40.4569 80.4037 39.4733 80.4772L39.47 83.4159C40.158 83.4518 40.8657 83.491 41.4864 83.215ZM42.5751 85.6669C42.5603 84.8273 42.1219 84.2294 41.3354 84.0889C40.7377 83.9811 40.1449 83.986 39.4651 84.004L39.4552 87.2563C40.1088 87.3576 40.8083 87.3788 41.4536 87.2367C42.2024 87.0734 42.5882 86.4575 42.5751 85.6669Z" fill="white"/>
<path d="M89.7141 87.7529C89.2494 87.7839 84.7568 87.993 85.0359 87.632C85.3298 87.2514 86.031 87.6189 86.031 86.8022L86.0359 80.9917C86.0359 80.1847 85.4054 80.4641 85.0425 80.1635C84.9752 80.108 85.2149 79.9381 85.3413 79.9348C87.7551 79.8858 91.4349 79.5428 92.8701 81.8493C93.7256 83.2264 93.6139 85.1196 92.5844 86.384C91.8931 87.2318 90.8011 87.6794 89.7157 87.7529H89.7141ZM90.008 80.7908C89.251 80.4363 88.3972 80.4347 87.5761 80.5474L87.5942 87.1975C88.916 87.5585 90.3446 87.2694 91.1114 86.1422C92.1032 84.6851 91.9587 81.7056 90.0064 80.7908H90.008Z" fill="white"/>
<path d="M51.0199 84.2533L50.9985 86.8212C50.992 87.5432 51.6948 87.2998 51.9214 87.6085C51.9558 87.6559 51.7276 87.8176 51.6636 87.816L48.7654 87.8046C48.7194 87.8046 48.6258 87.5121 48.6751 87.504L48.9263 87.4631C49.2021 87.4174 49.5092 87.2475 49.5092 86.942V80.8539C49.5059 80.1972 48.6685 80.3998 48.6537 80.2821L48.6094 79.9571C49.5765 79.8705 50.5503 79.8803 51.5946 79.9146C52.6389 79.9489 53.6636 79.9946 54.4928 80.6742C55.0379 81.1218 55.1595 81.9042 54.969 82.6475C54.8261 83.2094 54.3171 83.6619 53.5125 83.956L55.281 86.9274C55.4337 87.1854 55.8327 87.3896 56.102 87.4517L56.345 87.5089C56.3926 87.5203 56.3269 87.8078 56.2793 87.8078L54.1578 87.8144L52.1447 84.3104L51.0215 84.25L51.0199 84.2533ZM52.9017 83.4087C53.7719 82.7684 53.7194 81.2721 52.8606 80.6954C52.3516 80.354 51.7046 80.4194 51.0642 80.4765L51.056 83.6979C51.6422 83.7599 52.3417 83.8204 52.9017 83.4087Z" fill="white"/>
<path d="M78.9459 87.5634L73.8589 81.4083C73.739 83.3375 73.7965 85.0086 73.7784 86.8316C73.7751 87.1877 74.051 87.3903 74.3876 87.4425L74.6635 87.485C74.7275 87.4948 74.6881 87.6435 74.67 87.8019L72.5814 87.828C72.4927 87.828 72.3219 87.6908 72.2874 87.6238C72.161 87.3756 73.1708 87.4768 73.1708 86.9525L73.1741 80.959C73.1741 80.2599 72.4516 80.5017 72.1676 80.1749C71.8211 79.778 74.5058 79.8368 74.6043 79.9789L79.3055 85.7273L79.3794 80.959C79.3843 80.585 79.0822 80.3024 78.7012 80.3432L78.4303 80.1635C78.3531 80.1129 78.606 79.8662 78.7062 79.8662L80.5272 79.876C80.6109 79.876 80.8047 80.0034 80.8375 80.0737C81.0165 80.451 79.9787 80.0982 79.9738 80.959L79.936 87.8248C79.7291 88.1613 79.1561 87.815 78.9475 87.5618L78.9459 87.5634Z" fill="white"/>
<path d="M102.737 87.5415C101.081 88.3191 99.9705 87.9777 98.2119 87.4713L97.9985 85.6303C97.9837 85.5062 98.3679 85.4376 98.4008 85.5666C98.6963 86.6986 99.9361 87.8062 101.309 87.5121C101.921 87.3814 102.393 86.9812 102.448 86.336C102.488 85.8737 102.168 85.2236 101.637 84.9606L99.5091 83.9053C98.3203 83.3156 97.7948 81.8748 98.6339 80.7754C99.6815 79.4 101.8 79.7447 103.322 80.1645L103.379 81.8667C103.381 81.9222 103.161 82.0627 103.135 82.0186C102.787 81.4615 102.665 80.7607 101.928 80.4455C101.324 80.1874 100.672 80.1596 100.09 80.5631C99.8211 80.7509 99.6536 81.272 99.6996 81.584C99.7522 81.9467 100.044 82.3714 100.401 82.5544L102.511 83.6407C103.258 84.0245 103.795 84.6959 103.828 85.4326C103.864 86.2805 103.55 87.1626 102.742 87.5432L102.737 87.5415Z" fill="white"/>
<path d="M65.2364 85.485L62.1887 85.4752C62.0048 85.9113 61.0689 87.3717 61.9983 87.4125L62.3283 87.4272C62.4088 87.4305 62.3743 87.8013 62.2922 87.8013L60.018 87.8079C59.9687 87.8079 59.9129 87.522 59.9605 87.5089L60.2019 87.4485C60.5336 87.3652 60.8669 87.125 61.0147 86.7771L63.8144 80.158C63.9129 79.9261 64.0722 79.7954 64.33 79.7578L67.3497 86.8653C67.4794 87.1691 67.8258 87.375 68.1198 87.4485L68.3924 87.5171C68.4679 87.5367 68.2856 87.816 68.2052 87.816L65.2462 87.8242C65.174 87.8242 64.8784 87.6396 64.9392 87.6135L65.2216 87.4926L65.7224 87.2802C65.8373 87.2312 65.8259 86.849 65.77 86.7216L65.2347 85.485H65.2364ZM64.9539 84.9132L63.6764 82.0137L62.44 84.9296L64.9539 84.9132Z" fill="white"/>
<path d="M139.999 67.4874V67.9007C139.935 67.984 139.822 68.1703 139.781 68.2895L138.774 71.1923L134.354 71.2005C132.124 71.2037 129.97 71.14 127.737 71.2201C127.379 71.2331 127.162 71.0714 127.155 70.7904C127.137 69.9867 128.822 70.5127 128.824 69.7156L128.843 57.8055C128.845 56.5885 127.405 57.2076 127.195 56.6963C127.132 56.5428 127.19 56.0772 127.356 56.0576H133.464C133.628 56.056 133.71 56.6343 133.584 56.7241C133.086 57.0818 132.425 56.7551 131.927 57.322L131.881 61.0971L131.866 62.3206L131.845 68.9723C131.845 69.3627 131.71 70.0162 132.269 70.1305C133.246 70.3282 134.306 70.302 135.328 70.2187C137.027 70.0799 138.41 69.0458 139.065 67.4695C139.374 67.4139 139.725 67.4303 139.998 67.4874H139.999Z" fill="white"/>
<path d="M91.8385 71.112L85.8566 71.1316C85.6891 71.1316 85.5856 70.6431 85.671 70.5419C86.1341 69.9995 87.2194 70.7101 87.2736 69.2857L87.3295 67.7975L87.3377 58.1254C87.3377 57.864 87.2162 57.3805 87.0717 57.2188C86.8172 56.9362 86.3278 56.9917 85.694 56.7303C85.5446 56.6683 85.6529 56.0557 85.9058 56.0557C87.4674 56.0524 89.9945 56.0492 91.7465 56.0459C91.9337 56.0459 92.0388 56.549 91.9551 56.6552C91.8549 56.781 91.6382 56.8447 91.3574 56.9149C91.0224 56.9296 90.5708 57.0783 90.3475 57.3331L90.3393 62.6797H97.5364L97.5331 57.8558C97.5331 57.2743 97.0782 56.8676 96.4937 56.9803L95.896 56.7238C95.7531 56.6634 95.8516 56.0557 96.0175 56.0557L101.98 56.0492C102.17 56.0492 102.244 56.6438 102.118 56.7467C101.668 57.1142 100.517 56.7352 100.517 57.8068V69.3837C100.517 70.947 102.727 69.6418 102.047 71.1283H96.1423C95.9699 71.1283 95.8385 70.6399 95.9387 70.5451C96.0569 70.434 96.2769 70.3556 96.5462 70.2593C97.0306 70.3246 97.5347 69.993 97.5347 69.4588L97.5446 63.7823H90.3508L90.318 68.7695C90.3147 69.2726 90.3048 69.681 90.5495 70.1449L91.8056 70.3622C91.9813 70.3932 92.0635 71.112 91.8401 71.112H91.8385Z" fill="white"/>
<path d="M122.712 69.7418C124.587 68.7829 124.587 67.1869 125.227 67.1608C125.454 67.151 125.785 67.4352 125.712 67.6574L124.559 71.158L113.175 71.1433C113.009 71.1433 112.918 70.6418 113.002 70.5406C113.373 70.093 114.682 70.5879 114.682 69.2615L114.692 57.9297C114.692 56.7699 113.644 57.0476 113.032 56.7274C112.889 56.6523 112.983 56.0593 113.209 56.0593L119.405 56.043L119.421 56.7944L118.106 57.0149C117.946 57.0411 117.679 57.3808 117.679 57.5622L117.684 69.9378C118.308 70.2498 118.868 70.2531 119.524 70.2514C120.618 70.2498 121.726 70.2416 122.708 69.7401L122.712 69.7418Z" fill="white"/>
<path d="M110.761 71.1338L104.648 71.1387C104.44 71.1387 104.331 70.6372 104.42 70.5343C104.719 70.188 105.354 70.402 105.788 70.0573C105.954 69.925 106.1 69.4774 106.1 69.2144L106.095 58.1244C106.095 57.8598 105.95 57.4024 105.816 57.2341C105.515 56.8584 104.929 57.043 104.428 56.7539C104.282 56.6689 104.392 56.0547 104.569 56.0547L110.66 56.0498C111.458 57.3403 109.5 56.486 109.118 57.4824L109.121 69.7143C109.121 70.1913 109.899 70.2583 110.195 70.3089L110.73 70.4004C110.865 70.4233 110.817 70.7957 110.765 71.1371L110.761 71.1338Z" fill="white"/>
<path d="M24.0938 64.321L22.2218 64.2605L22.2284 69.2804C22.2284 69.5009 22.3762 69.9485 22.5437 70.058C23.01 70.3667 23.3286 70.1053 23.9394 70.468C24.0675 70.5447 24.0018 71.1148 23.8294 71.1148L17.8425 71.1263C17.6126 71.1263 17.5683 70.5725 17.6882 70.4778C18.1135 70.1413 19.2235 70.4157 19.2218 69.496L19.2186 57.6856C19.2186 56.4719 17.1282 57.354 17.6307 56.1811C17.7801 55.8315 24.0938 55.9785 24.9673 56.0145C26.3351 56.0717 27.68 56.4229 28.7309 57.2772C30.2563 58.5203 30.432 60.8497 29.2071 62.3542C28.6028 63.0958 27.7571 63.3539 26.7719 63.7002L29.8737 69.0011C30.3417 69.8015 31.0166 70.2866 32.0215 70.236C32.1135 70.4271 32.1282 70.7881 32.079 71.1214L27.7112 71.1181L24.097 64.3161L24.0938 64.321ZM24.5256 63.1481C26.0412 62.8557 26.8228 61.66 26.8064 60.2421C26.7949 59.2489 26.5946 58.2328 25.7621 57.6137C24.767 56.8737 23.4567 56.743 22.2547 56.9832L22.2448 63.2233C22.9706 63.2641 23.7637 63.2935 24.5256 63.1465V63.1481Z" fill="white"/>
<path d="M68.8334 63.2892C67.6347 61.7325 66.6019 60.3505 65.2472 58.7709L65.2127 67.5544C65.2094 68.3124 65.2242 69.054 65.4492 69.7662C65.6167 70.2971 66.7677 70.1615 67.1257 70.4654C67.2406 70.5634 67.1832 71.1204 67.014 71.1204H62.5674C62.4968 70.9048 62.4525 70.5797 62.4984 70.4572C62.5444 70.3347 62.8351 70.2563 63.0009 70.253C63.6791 70.2399 64.0633 69.7172 64.0649 69.0164L64.0863 59.1499C64.0863 58.5814 64.0633 57.9231 63.8498 57.4363C63.6364 56.9495 62.8663 56.9332 62.3736 56.8107C62.2505 56.6604 62.2521 56.2863 62.308 55.9727L66.8778 55.9874L75.3112 66.8912L75.3622 58.0864C75.3654 57.4053 74.8876 56.8842 74.1947 56.9511C73.9911 56.8989 73.6594 56.7568 73.6068 56.6081C73.5543 56.4595 73.6167 56.0462 73.771 56.0347C75.1717 55.9351 76.5526 55.9972 78.0042 56.0298C78.1897 56.0347 78.2439 56.2814 78.2472 56.5477C78.2554 57.1896 76.6183 56.5967 76.6167 58.0864L76.6002 71.3099L75.0239 71.3311L68.8351 63.2892H68.8334Z" fill="white"/>
<path d="M11.5219 66.1427C11.5252 65.8356 11.4513 65.3799 11.2674 65.2819C10.6171 64.9339 9.96362 65.2819 9.70582 64.9976C9.59909 64.8784 9.6467 64.4863 9.71239 64.256L15.7387 64.2527C16.2411 65.6037 14.4743 64.7444 14.4694 65.8585L14.4497 70.2756C11.2986 71.7163 7.22142 72.0479 4.07528 70.416C1.73538 69.204 0.31173 66.9922 0.0473619 64.4046C-0.328664 60.7357 1.55147 57.4785 5.07856 56.1929C7.19022 55.4235 9.4201 55.4676 11.6073 55.9985L14.3364 56.6617L14.3922 60.1885C14.1295 60.2604 13.7928 60.2293 13.5827 60.0954C13.0523 58.1074 11.3446 56.8153 9.29367 56.6748C5.72224 56.4298 3.68447 58.9029 3.36263 62.188C3.10812 64.7771 3.70418 67.4104 5.70582 69.1648C7.18037 70.4569 9.20007 70.8391 11.0047 70.1383C11.3364 70.0093 11.4924 69.7202 11.4956 69.4049L11.5219 66.1427Z" fill="white"/>
<path d="M40.6995 63.9371L38.174 63.8946L38.1609 68.9798C38.1609 69.2036 38.2085 69.576 38.3284 69.7149C38.8144 70.2768 41.4318 70.1429 42.2151 70.0498C44.8259 69.7427 45.0345 67.4459 45.6502 67.392C45.8062 67.3789 46.1691 67.6093 46.1297 67.7563L45.2184 71.1197L33.6896 71.1263C32.8029 69.6675 35.22 70.9988 35.2184 69.2673L35.2102 61.8266L35.1823 59.6295C35.1724 58.8323 35.2956 58.0776 35.041 57.2902C34.8998 56.8525 33.7143 56.957 33.5747 56.7495C33.4926 56.627 33.5139 56.3444 33.5369 56.0537C35.6371 55.9605 37.7603 55.9752 39.9442 55.9916L41.6617 56.0047L44.4236 55.9916L45.0148 59.636C43.7882 60.6782 44.3268 57.4879 41.7438 57.1269C40.5468 56.9586 39.468 56.9684 38.1839 57.0191L38.1445 62.8344C39.6322 62.8344 41.9672 63.3278 42.0378 61.2009C42.0427 61.0572 42.1527 60.8154 42.2479 60.7223C42.3596 60.6112 42.9113 60.6945 42.9113 60.8595L42.9064 65.7879C42.9064 65.9823 42.3448 66.0721 42.2381 65.9594C41.9031 65.6049 42.1018 63.9583 40.6995 63.9338V63.9371Z" fill="white"/>
<path d="M57.5264 65.8486C56.1733 66.814 57.216 63.9063 55.1487 63.9079H52.8187V69.6204C53.0469 69.8622 53.4738 70.0762 53.8137 70.0892C56.3425 70.1889 58.4935 70.3996 59.7546 67.8578C59.8252 67.7173 59.9615 67.5295 60.0486 67.4445C60.152 67.3433 60.5428 67.4854 60.7119 67.6112L59.7727 71.1232H48.354C48.1553 71.1249 48.0781 70.6577 48.1487 70.5482C48.4426 70.0909 49.8302 70.5564 49.8318 69.3019L49.8367 57.9243C49.8367 56.7678 48.8252 57.0569 48.1947 56.7318C48.0551 56.66 48.152 56.0653 48.3064 56.0637L51.8351 56.0147L56.7431 55.9902C57.5182 55.9869 58.2702 55.9837 59.0715 56.018L59.6413 59.6542C59.5412 59.8127 59.0912 59.8633 58.9402 59.7604C58.3983 58.612 57.973 57.4702 56.5149 57.1761C55.2949 56.9295 54.1027 56.9605 52.8269 57.0389L52.817 62.8445C53.5855 62.8657 54.3146 62.8739 55.0453 62.8461C57.4492 62.753 55.9911 59.8257 57.528 60.8598V65.8453L57.5264 65.8486Z" fill="white"/>
</svg>
