<svg width="48" height="48" viewBox="0 0 48 48" fill="none" xmlns="http://www.w3.org/2000/svg">
<path d="M16 18C15.4333 18 14.9587 17.808 14.576 17.424C14.1933 17.04 14.0013 16.5653 14 16C13.9987 15.4347 14.1907 14.96 14.576 14.576C14.9613 14.192 15.436 14 16 14H40C40.5667 14 41.042 14.192 41.426 14.576C41.81 14.96 42.0013 15.4347 42 16C41.9987 16.5653 41.8067 17.0407 41.424 17.426C41.0413 17.8113 40.5667 18.0027 40 18H16ZM16 26C15.4333 26 14.9587 25.808 14.576 25.424C14.1933 25.04 14.0013 24.5653 14 24C13.9987 23.4347 14.1907 22.96 14.576 22.576C14.9613 22.192 15.436 22 16 22H40C40.5667 22 41.042 22.192 41.426 22.576C41.81 22.96 42.0013 23.4347 42 24C41.9987 24.5653 41.8067 25.0407 41.424 25.426C41.0413 25.8113 40.5667 26.0027 40 26H16ZM16 34C15.4333 34 14.9587 33.808 14.576 33.424C14.1933 33.04 14.0013 32.5653 14 32C13.9987 31.4347 14.1907 30.96 14.576 30.576C14.9613 30.192 15.436 30 16 30H40C40.5667 30 41.042 30.192 41.426 30.576C41.81 30.96 42.0013 31.4347 42 32C41.9987 32.5653 41.8067 33.0407 41.424 33.426C41.0413 33.8113 40.5667 34.0027 40 34H16ZM8.00001 18C7.43334 18 6.95867 17.808 6.57601 17.424C6.19334 17.04 6.00134 16.5653 6.00001 16C5.99867 15.4347 6.19067 14.96 6.57601 14.576C6.96134 14.192 7.43601 14 8.00001 14C8.56401 14 9.03934 14.192 9.42601 14.576C9.81267 14.96 10.004 15.4347 10 16C9.99601 16.5653 9.80401 17.0407 9.42401 17.426C9.04401 17.8113 8.56934 18.0027 8.00001 18ZM8.00001 26C7.43334 26 6.95867 25.808 6.57601 25.424C6.19334 25.04 6.00134 24.5653 6.00001 24C5.99867 23.4347 6.19067 22.96 6.57601 22.576C6.96134 22.192 7.43601 22 8.00001 22C8.56401 22 9.03934 22.192 9.42601 22.576C9.81267 22.96 10.004 23.4347 10 24C9.99601 24.5653 9.80401 25.0407 9.42401 25.426C9.04401 25.8113 8.56934 26.0027 8.00001 26ZM8.00001 34C7.43334 34 6.95867 33.808 6.57601 33.424C6.19334 33.04 6.00134 32.5653 6.00001 32C5.99867 31.4347 6.19067 30.96 6.57601 30.576C6.96134 30.192 7.43601 30 8.00001 30C8.56401 30 9.03934 30.192 9.42601 30.576C9.81267 30.96 10.004 31.4347 10 32C9.99601 32.5653 9.80401 33.0407 9.42401 33.426C9.04401 33.8113 8.56934 34.0027 8.00001 34Z" fill="#73A027"/>
</svg>
