<svg width="48" height="48" viewBox="0 0 48 48" fill="none" xmlns="http://www.w3.org/2000/svg">
<path d="M28 6.538C28 5.136 26.864 4 25.462 4H22.54C21.136 4 20 5.136 20 6.538C20 7.694 19.208 8.686 18.13 9.11C17.9593 9.17933 17.7907 9.25 17.624 9.322C16.562 9.782 15.3 9.642 14.48 8.824C14.0038 8.34891 13.3586 8.0821 12.686 8.0821C12.0134 8.0821 11.3682 8.34891 10.892 8.824L8.824 10.892C8.34891 11.3682 8.0821 12.0134 8.0821 12.686C8.0821 13.3586 8.34891 14.0038 8.824 14.48C9.644 15.3 9.784 16.56 9.32 17.624C9.24712 17.7915 9.17711 17.9601 9.11 18.13C8.686 19.208 7.694 20 6.538 20C5.136 20 4 21.136 4 22.538V25.462C4 26.864 5.136 28 6.538 28C7.694 28 8.686 28.792 9.11 29.87C9.17933 30.0407 9.24933 30.2093 9.32 30.376C9.782 31.438 9.642 32.7 8.824 33.52C8.34891 33.9962 8.0821 34.6414 8.0821 35.314C8.0821 35.9866 8.34891 36.6318 8.824 37.108L10.892 39.176C11.3682 39.6511 12.0134 39.9179 12.686 39.9179C13.3586 39.9179 14.0038 39.6511 14.48 39.176C15.3 38.356 16.56 38.216 17.624 38.678C17.7907 38.7513 17.9593 38.822 18.13 38.89C19.208 39.314 20 40.306 20 41.462C20 42.864 21.136 44 22.538 44H25.462C26.864 44 28 42.864 28 41.462C28 40.306 28.792 39.314 29.87 38.888C30.0407 38.8213 30.2093 38.752 30.376 38.68C31.438 38.216 32.7 38.358 33.518 39.176C33.9943 39.6517 34.6399 39.9189 35.313 39.9189C35.9861 39.9189 36.6317 39.6517 37.108 39.176L39.176 37.108C39.6511 36.6318 39.9179 35.9866 39.9179 35.314C39.9179 34.6414 39.6511 33.9962 39.176 33.52C38.356 32.7 38.216 31.44 38.678 30.376C38.7513 30.2093 38.822 30.0407 38.89 29.87C39.314 28.792 40.306 28 41.462 28C42.864 28 44 26.864 44 25.462V22.54C44 21.138 42.864 20.002 41.462 20.002C40.306 20.002 39.314 19.21 38.888 18.132C38.8209 17.9621 38.7509 17.7935 38.678 17.626C38.218 16.564 38.358 15.302 39.176 14.482C39.6511 14.0058 39.9179 13.3606 39.9179 12.688C39.9179 12.0154 39.6511 11.3702 39.176 10.894L37.108 8.826C36.6318 8.35091 35.9866 8.0841 35.314 8.0841C34.6414 8.0841 33.9962 8.35091 33.52 8.826C32.7 9.646 31.44 9.786 30.376 9.324C30.2086 9.25045 30.0399 9.17977 29.87 9.112C28.792 8.686 28 7.692 28 6.538Z" stroke="#73A027" stroke-width="4"/>
<path d="M32 24C32 26.1217 31.1571 28.1566 29.6569 29.6569C28.1566 31.1571 26.1217 32 24 32C21.8783 32 19.8434 31.1571 18.3431 29.6569C16.8429 28.1566 16 26.1217 16 24C16 21.8783 16.8429 19.8434 18.3431 18.3431C19.8434 16.8429 21.8783 16 24 16C26.1217 16 28.1566 16.8429 29.6569 18.3431C31.1571 19.8434 32 21.8783 32 24Z" stroke="#73A027" stroke-width="4"/>
</svg>
