<svg width="140" height="88" viewBox="0 0 140 88" fill="none" xmlns="http://www.w3.org/2000/svg">
<g clip-path="url(#clip0_20848_2249)">
<path d="M93.1302 18.0491C85.1351 18.0671 77.1122 20.2576 70.053 23.6799C64.3289 20.8261 55.6179 18.1798 49.2698 17.9936L46.4258 17.9102C47.37 13.8803 49.4061 10.2571 52.2813 7.29556C57.4718 1.94574 64.7575 -0.596036 72.2025 0.119451C82.3273 1.09304 90.7591 8.14663 93.1302 18.0507V18.0491Z" fill="#F2B525"/>
<path d="M85.5806 40.94C74.6299 47.6473 60.198 46.713 50.5872 37.9605C46.0256 33.8064 42.9402 27.8277 42.707 21.6105L44.244 21.5206C45.4246 21.452 46.6019 21.452 47.7826 21.5174L49.2883 21.6023C54.5609 21.898 59.6512 23.195 64.5543 25.1487C72.9714 28.5154 80.0584 33.6104 85.5806 40.9384V40.94Z" fill="#73A027"/>
<path d="M88.7657 38.7007C86.943 36.3255 85.2107 34.264 83.0925 32.3511C80.3503 29.8731 77.4849 27.6956 74.2402 25.9019C81.7296 22.8554 89.3092 21.297 97.3683 21.7348C97.255 26.998 94.9036 32.1845 91.4225 36.0756L88.7657 38.7023V38.7007Z" fill="#466D2E"/>
<path d="M43.4142 87.2785C42.828 87.6869 42.1071 87.8192 41.4142 87.8192L37.4043 87.8225C37.291 87.8225 37.0841 87.7 37.0858 87.62C37.0907 87.3766 37.9446 87.5154 37.9462 86.9126V80.9143C37.9495 80.2348 37.0677 80.3916 37.0792 80.2674L37.1104 79.9456C37.874 79.895 38.6457 79.8868 39.452 79.913C40.6424 79.9489 43.1547 79.8394 43.6457 81.2524C43.8575 81.865 43.7836 82.556 43.2746 82.9448C42.9347 83.2045 42.5094 83.3907 42.0447 83.6554C42.6589 83.9053 43.2713 84.0474 43.6654 84.4378C44.4979 85.266 44.3994 86.5908 43.4142 87.2769V87.2785ZM41.4864 83.216C42.1859 82.9056 42.3009 82.2048 42.1597 81.5465C41.9117 80.3932 40.4569 80.4046 39.4733 80.4782L39.47 83.4169C40.158 83.4528 40.8657 83.492 41.4864 83.216ZM42.5751 85.6679C42.5603 84.8282 42.1219 84.2304 41.3354 84.0899C40.7377 83.9821 40.1449 83.987 39.4651 84.0049L39.4552 87.2573C40.1088 87.3586 40.8083 87.3798 41.4536 87.2377C42.2024 87.0743 42.5882 86.4585 42.5751 85.6679Z" fill="#285039"/>
<path d="M89.7141 87.7539C89.2494 87.7849 84.7568 87.994 85.0359 87.633C85.3298 87.2524 86.031 87.6199 86.031 86.8031L86.0359 80.9927C86.0359 80.1857 85.4054 80.465 85.0425 80.1645C84.9752 80.1089 85.2149 79.939 85.3413 79.9358C87.7551 79.8868 91.4349 79.5437 92.8701 81.8503C93.7256 83.2273 93.6139 85.1206 92.5844 86.385C91.8931 87.2328 90.8011 87.6804 89.7157 87.7539H89.7141ZM90.008 80.7917C89.251 80.4373 88.3972 80.4356 87.5761 80.5484L87.5942 87.1985C88.916 87.5595 90.3446 87.2703 91.1114 86.1432C92.1032 84.6861 91.9587 81.7065 90.0064 80.7917H90.008Z" fill="#285039"/>
<path d="M51.0199 84.2542L50.9985 86.8221C50.992 87.5442 51.6948 87.3008 51.9214 87.6095C51.9558 87.6569 51.7276 87.8186 51.6636 87.817L48.7654 87.8055C48.7194 87.8055 48.6258 87.5131 48.6751 87.505L48.9263 87.4641C49.2021 87.4184 49.5092 87.2485 49.5092 86.943V80.8549C49.5059 80.1982 48.6685 80.4007 48.6537 80.2831L48.6094 79.958C49.5765 79.8715 50.5503 79.8813 51.5946 79.9156C52.6389 79.9499 53.6636 79.9956 54.4928 80.6752C55.0379 81.1227 55.1595 81.9052 54.969 82.6485C54.8261 83.2104 54.3171 83.6629 53.5125 83.9569L55.281 86.9283C55.4337 87.1864 55.8327 87.3906 56.102 87.4527L56.345 87.5099C56.3926 87.5213 56.3269 87.8088 56.2793 87.8088L54.1578 87.8153L52.1447 84.3114L51.0215 84.251L51.0199 84.2542ZM52.9017 83.4097C53.7719 82.7693 53.7194 81.273 52.8606 80.6964C52.3516 80.355 51.7046 80.4203 51.0642 80.4775L51.056 83.6988C51.6422 83.7609 52.3417 83.8213 52.9017 83.4097Z" fill="#285039"/>
<path d="M78.9459 87.5644L73.8589 81.4092C73.739 83.3384 73.7965 85.0095 73.7784 86.8326C73.7751 87.1887 74.051 87.3912 74.3876 87.4435L74.6635 87.486C74.7275 87.4958 74.6881 87.6444 74.67 87.8029L72.5814 87.829C72.4927 87.829 72.3219 87.6918 72.2874 87.6248C72.161 87.3765 73.1708 87.4778 73.1708 86.9534L73.1741 80.96C73.1741 80.2609 72.4516 80.5026 72.1676 80.1759C71.8211 79.779 74.5058 79.8378 74.6043 79.9799L79.3055 85.7283L79.3794 80.96C79.3843 80.5859 79.0822 80.3033 78.7012 80.3442L78.4303 80.1645C78.3531 80.1138 78.606 79.8672 78.7062 79.8672L80.5272 79.877C80.6109 79.877 80.8047 80.0044 80.8375 80.0746C81.0165 80.452 79.9787 80.0991 79.9738 80.96L79.936 87.8258C79.7291 88.1623 79.1561 87.816 78.9475 87.5628L78.9459 87.5644Z" fill="#285039"/>
<path d="M102.737 87.5425C101.081 88.3201 99.9705 87.9787 98.2119 87.4723L97.9985 85.6313C97.9837 85.5071 98.3679 85.4385 98.4008 85.5676C98.6963 86.6996 99.9361 87.8071 101.309 87.5131C101.921 87.3824 102.393 86.9822 102.448 86.337C102.488 85.8747 102.168 85.2245 101.637 84.9615L99.5091 83.9063C98.3203 83.3166 97.7948 81.8758 98.6339 80.7764C99.6815 79.401 101.8 79.7457 103.322 80.1655L103.379 81.8676C103.381 81.9232 103.161 82.0637 103.135 82.0195C102.787 81.4625 102.665 80.7617 101.928 80.4465C101.324 80.1884 100.672 80.1606 100.09 80.5641C99.8211 80.7519 99.6536 81.273 99.6996 81.585C99.7522 81.9477 100.044 82.3724 100.401 82.5553L102.511 83.6416C103.258 84.0255 103.795 84.6969 103.828 85.4336C103.864 86.2814 103.55 87.1635 102.742 87.5441L102.737 87.5425Z" fill="#285039"/>
<path d="M65.2364 85.486L62.1887 85.4762C62.0048 85.9123 61.0689 87.3727 61.9983 87.4135L62.3283 87.4282C62.4088 87.4315 62.3743 87.8023 62.2922 87.8023L60.018 87.8088C59.9687 87.8088 59.9129 87.523 59.9605 87.5099L60.2019 87.4495C60.5336 87.3661 60.8669 87.126 61.0147 86.7781L63.8144 80.159C63.9129 79.927 64.0722 79.7964 64.33 79.7588L67.3497 86.8663C67.4794 87.1701 67.8258 87.376 68.1198 87.4495L68.3924 87.5181C68.4679 87.5377 68.2856 87.817 68.2052 87.817L65.2462 87.8252C65.174 87.8252 64.8784 87.6406 64.9392 87.6144L65.2216 87.4936L65.7224 87.2812C65.8373 87.2322 65.8259 86.85 65.77 86.7225L65.2347 85.486H65.2364ZM64.9539 84.9142L63.6764 82.0147L62.44 84.9305L64.9539 84.9142Z" fill="#285039"/>
<path d="M139.999 67.4884V67.9017C139.935 67.985 139.822 68.1712 139.781 68.2905L138.774 71.1933L134.354 71.2014C132.124 71.2047 129.97 71.141 127.737 71.221C127.379 71.2341 127.162 71.0724 127.155 70.7914C127.137 69.9877 128.822 70.5137 128.824 69.7166L128.843 57.8065C128.845 56.5895 127.405 57.2086 127.195 56.6973C127.132 56.5438 127.19 56.0782 127.356 56.0586H133.464C133.628 56.057 133.71 56.6352 133.584 56.7251C133.086 57.0828 132.425 56.7561 131.927 57.3229L131.881 61.098L131.866 62.3216L131.845 68.9733C131.845 69.3637 131.71 70.0171 132.269 70.1315C133.246 70.3291 134.306 70.303 135.328 70.2197C137.027 70.0808 138.41 69.0468 139.065 67.4704C139.374 67.4149 139.725 67.4312 139.998 67.4884H139.999Z" fill="#285039"/>
<path d="M91.8385 71.1129L85.8566 71.1325C85.6891 71.1325 85.5856 70.6441 85.671 70.5428C86.1341 70.0005 87.2194 70.7111 87.2736 69.2866L87.3295 67.7985L87.3377 58.1264C87.3377 57.865 87.2162 57.3815 87.0717 57.2197C86.8172 56.9371 86.3278 56.9927 85.694 56.7313C85.5446 56.6693 85.6529 56.0567 85.9058 56.0567C87.4674 56.0534 89.9945 56.0501 91.7465 56.0469C91.9337 56.0469 92.0388 56.55 91.9551 56.6562C91.8549 56.782 91.6382 56.8457 91.3574 56.9159C91.0224 56.9306 90.5708 57.0793 90.3475 57.3341L90.3393 62.6806H97.5364L97.5331 57.8568C97.5331 57.2753 97.0782 56.8685 96.4937 56.9813L95.896 56.7248C95.7531 56.6643 95.8516 56.0567 96.0175 56.0567L101.98 56.0501C102.17 56.0501 102.244 56.6447 102.118 56.7477C101.668 57.1152 100.517 56.7362 100.517 57.8078V69.3847C100.517 70.948 102.727 69.6428 102.047 71.1293H96.1423C95.9699 71.1293 95.8385 70.6408 95.9387 70.5461C96.0569 70.435 96.2769 70.3566 96.5462 70.2602C97.0306 70.3256 97.5347 69.994 97.5347 69.4598L97.5446 63.7833H90.3508L90.318 68.7705C90.3147 69.2736 90.3048 69.682 90.5495 70.1459L91.8056 70.3631C91.9813 70.3942 92.0635 71.1129 91.8401 71.1129H91.8385Z" fill="#285039"/>
<path d="M122.712 69.7427C124.587 68.7839 124.587 67.1879 125.227 67.1618C125.454 67.152 125.785 67.4362 125.712 67.6584L124.559 71.159L113.175 71.1443C113.009 71.1443 112.918 70.6428 113.002 70.5415C113.373 70.094 114.682 70.5889 114.682 69.2625L114.692 57.9307C114.692 56.7709 113.644 57.0486 113.032 56.7284C112.889 56.6533 112.983 56.0603 113.209 56.0603L119.405 56.0439L119.421 56.7954L118.106 57.0159C117.946 57.042 117.679 57.3818 117.679 57.5631L117.684 69.9388C118.308 70.2508 118.868 70.254 119.524 70.2524C120.618 70.2508 121.726 70.2426 122.708 69.7411L122.712 69.7427Z" fill="#285039"/>
<path d="M110.761 71.1348L104.648 71.1397C104.44 71.1397 104.331 70.6382 104.42 70.5353C104.719 70.189 105.354 70.403 105.788 70.0583C105.954 69.926 106.1 69.4784 106.1 69.2154L106.095 58.1254C106.095 57.8607 105.95 57.4033 105.816 57.2351C105.515 56.8594 104.929 57.044 104.428 56.7548C104.282 56.6699 104.392 56.0557 104.569 56.0557L110.66 56.0508C111.458 57.3413 109.5 56.4869 109.118 57.4834L109.121 69.7153C109.121 70.1923 109.899 70.2592 110.195 70.3099L110.73 70.4014C110.865 70.4242 110.817 70.7967 110.765 71.1381L110.761 71.1348Z" fill="#285039"/>
<path d="M24.0938 64.322L22.2218 64.2615L22.2284 69.2814C22.2284 69.5019 22.3762 69.9495 22.5437 70.0589C23.01 70.3677 23.3286 70.1063 23.9394 70.4689C24.0675 70.5457 24.0018 71.1158 23.8294 71.1158L17.8425 71.1273C17.6126 71.1273 17.5683 70.5735 17.6882 70.4787C18.1135 70.1422 19.2235 70.4167 19.2218 69.497L19.2186 57.6866C19.2186 56.4728 17.1282 57.3549 17.6307 56.1821C17.7801 55.8325 24.0938 55.9795 24.9673 56.0155C26.3351 56.0726 27.68 56.4238 28.7309 57.2782C30.2563 58.5213 30.432 60.8507 29.2071 62.3552C28.6028 63.0968 27.7571 63.3549 26.7719 63.7012L29.8737 69.002C30.3417 69.8025 31.0166 70.2876 32.0215 70.237C32.1135 70.4281 32.1282 70.7891 32.079 71.1224L27.7112 71.1191L24.097 64.3171L24.0938 64.322ZM24.5256 63.1491C26.0412 62.8567 26.8228 61.6609 26.8064 60.243C26.7949 59.2498 26.5946 58.2338 25.7621 57.6147C24.767 56.8747 23.4567 56.744 22.2547 56.9841L22.2448 63.2242C22.9706 63.2651 23.7637 63.2945 24.5256 63.1475V63.1491Z" fill="#285039"/>
<path d="M68.8334 63.2902C67.6347 61.7335 66.6019 60.3515 65.2472 58.7719L65.2127 67.5554C65.2094 68.3133 65.2242 69.055 65.4492 69.7672C65.6167 70.2981 66.7677 70.1625 67.1257 70.4663C67.2406 70.5643 67.1832 71.1214 67.014 71.1214H62.5674C62.4968 70.9057 62.4525 70.5807 62.4984 70.4582C62.5444 70.3356 62.8351 70.2572 63.0009 70.254C63.6791 70.2409 64.0633 69.7182 64.0649 69.0174L64.0863 59.1509C64.0863 58.5824 64.0633 57.9241 63.8498 57.4373C63.6364 56.9505 62.8663 56.9342 62.3736 56.8116C62.2505 56.6614 62.2521 56.2873 62.308 55.9736L66.8778 55.9883L75.3112 66.8922L75.3622 58.0874C75.3654 57.4062 74.8876 56.8851 74.1947 56.9521C73.9911 56.8998 73.6594 56.7577 73.6068 56.6091C73.5543 56.4604 73.6167 56.0471 73.771 56.0357C75.1717 55.9361 76.5526 55.9981 78.0042 56.0308C78.1897 56.0357 78.2439 56.2824 78.2472 56.5486C78.2554 57.1906 76.6183 56.5976 76.6167 58.0874L76.6002 71.3109L75.0239 71.3321L68.8351 63.2902H68.8334Z" fill="#285039"/>
<path d="M11.5219 66.1437C11.5252 65.8366 11.4513 65.3808 11.2674 65.2828C10.6171 64.9349 9.96362 65.2828 9.70582 64.9986C9.59909 64.8794 9.6467 64.4873 9.71239 64.257L15.7387 64.2537C16.2411 65.6046 14.4743 64.7454 14.4694 65.8595L14.4497 70.2765C11.2986 71.7173 7.22142 72.0489 4.07528 70.417C1.73538 69.2049 0.31173 66.9931 0.0473619 64.4056C-0.328664 60.7367 1.55147 57.4795 5.07856 56.1939C7.19022 55.4245 9.4201 55.4686 11.6073 55.9995L14.3364 56.6627L14.3922 60.1895C14.1295 60.2614 13.7928 60.2303 13.5827 60.0964C13.0523 58.1084 11.3446 56.8162 9.29367 56.6758C5.72224 56.4307 3.68447 58.9039 3.36263 62.1889C3.10812 64.7781 3.70418 67.4113 5.70582 69.1657C7.18037 70.4579 9.20007 70.8401 11.0047 70.1393C11.3364 70.0103 11.4924 69.7211 11.4956 69.4059L11.5219 66.1437Z" fill="#285039"/>
<path d="M40.6995 63.9381L38.174 63.8956L38.1609 68.9808C38.1609 69.2046 38.2085 69.577 38.3284 69.7159C38.8144 70.2778 41.4318 70.1438 42.2151 70.0507C44.8259 69.7436 45.0345 67.4469 45.6502 67.393C45.8062 67.3799 46.1691 67.6102 46.1297 67.7573L45.2184 71.1207L33.6896 71.1272C32.8029 69.6685 35.22 70.9998 35.2184 69.2683L35.2102 61.8275L35.1823 59.6304C35.1724 58.8333 35.2956 58.0786 35.041 57.2912C34.8998 56.8534 33.7143 56.958 33.5747 56.7505C33.4926 56.628 33.5139 56.3454 33.5369 56.0546C35.6371 55.9615 37.7603 55.9762 39.9442 55.9926L41.6617 56.0056L44.4236 55.9926L45.0148 59.637C43.7882 60.6792 44.3268 57.4889 41.7438 57.1279C40.5468 56.9596 39.468 56.9694 38.1839 57.0201L38.1445 62.8354C39.6322 62.8354 41.9672 63.3288 42.0378 61.2019C42.0427 61.0581 42.1527 60.8164 42.2479 60.7233C42.3596 60.6122 42.9113 60.6955 42.9113 60.8605L42.9064 65.7888C42.9064 65.9832 42.3448 66.0731 42.2381 65.9604C41.9031 65.6059 42.1018 63.9593 40.6995 63.9348V63.9381Z" fill="#285039"/>
<path d="M57.5264 65.8495C56.1733 66.815 57.216 63.9073 55.1487 63.9089H52.8187V69.6214C53.0469 69.8631 53.4738 70.0771 53.8137 70.0902C56.3425 70.1898 58.4935 70.4006 59.7546 67.8588C59.8252 67.7183 59.9615 67.5305 60.0486 67.4455C60.152 67.3442 60.5428 67.4863 60.7119 67.6121L59.7727 71.1242H48.354C48.1553 71.1259 48.0781 70.6587 48.1487 70.5492C48.4426 70.0918 49.8302 70.5574 49.8318 69.3028L49.8367 57.9253C49.8367 56.7687 48.8252 57.0579 48.1947 56.7328C48.0551 56.6609 48.152 56.0663 48.3064 56.0647L51.8351 56.0157L56.7431 55.9912C57.5182 55.9879 58.2702 55.9846 59.0715 56.019L59.6413 59.6552C59.5412 59.8136 59.0912 59.8643 58.9402 59.7614C58.3983 58.613 57.973 57.4712 56.5149 57.1771C55.2949 56.9305 54.1027 56.9615 52.8269 57.0399L52.817 62.8455C53.5855 62.8667 54.3146 62.8749 55.0453 62.8471C57.4492 62.754 55.9911 59.8267 57.528 60.8607V65.8463L57.5264 65.8495Z" fill="#285039"/>
</g>
<defs>
<clipPath id="clip0_20848_2249">
<rect width="140" height="88" fill="white"/>
</clipPath>
</defs>
</svg>
